<svg xmlns="http://www.w3.org/2000/svg" width="100%" height="100%" viewBox="0 0 19167 8766" fill="none">
    <path d="M2701.91 0H3903.98V820.591H3297.43L3087.89 1029V3660.1L2360.03 4389.51L3087.89 5131.95V7737L3264.35 7958.43H3903.98V8766H2712.94L2106.39 8179.86V5131.95L1378.52 4389.51L2106.39 3660.1V586.137L2701.91 0Z" fill="#60A5FA"/>
    <path d="M904.312 2057.99H441.128L0 2487.82V6356.33L452.156 6812.21H915.34L904.312 2057.99Z" fill="#60A5FA"/>
    <path d="M4433.33 1927.74V4181.11H4973.72V3334.47H5117.08L5613.35 4181.11H6252.99L5580.27 3047.91L6208.87 1927.74H5613.35L5117.08 2774.38H4973.72V1927.74H4433.33Z" fill="black"/>
    <path fill-rule="evenodd" clip-rule="evenodd" d="M6208.87 3295.39V2852.53L6252.99 2709.25L6330.18 2461.77L6517.66 2188.24L6815.42 1992.86L7058.04 1927.74H7388.89L7675.62 1992.86L7929.27 2188.24L8116.75 2461.77L8216 2774.38L8249.09 2969.76V3204.21L8216 3438.67L8083.67 3738.25L7907.21 3946.65L7675.62 4102.96L7488.14 4181.11L7322.72 4220.18H7102.16L6870.56 4155.06L6627.94 4024.81L6418.41 3816.4L6286.07 3581.95L6208.87 3295.39ZM7421.97 2539.93L7344.78 2500.85H7091.13L7035.99 2526.9L6969.82 2565.98L6914.68 2631.1L6848.51 2735.3L6782.34 2878.58V3269.34L6837.48 3399.59L6914.68 3503.79L7013.93 3581.95L7113.18 3621.02H7344.78L7444.03 3594.97L7532.26 3516.82L7598.43 3451.69L7642.54 3347.49L7686.65 3243.29V2917.66L7675.62 2878.58L7642.54 2787.41L7598.43 2696.23L7543.28 2618.08L7477.12 2565.98L7421.97 2539.93Z" fill="black"/>
    <path d="M8502.74 4181.11V1927.74H9087.23L9528.36 2552.95L9947.43 1927.74H10554V4181.11H10002.6V2735.3L9528.36 3360.52L9054.15 2735.3V4181.11H8502.74Z" fill="black"/>
    <path fill-rule="evenodd" clip-rule="evenodd" d="M10686.3 4181.11L11403.2 1927.74H11998.7L12704.5 4181.11H12097.9L12031.8 3829.43H11348L11248.8 4181.11H10686.3ZM11910.4 3373.54L11689.9 2592.03L11469.3 3373.54H11910.4Z" fill="black"/>
    <path d="M12836.8 1927.74H13377.2V2774.38H14049.9V1927.74H14590.3V4181.11H14049.9V3334.47H13377.2V4181.11H12836.8V1927.74Z" fill="black"/>
    <path fill-rule="evenodd" clip-rule="evenodd" d="M15252 1927.74H16784.9V3594.97H17104.7V4181.11H14810.9V3568.92H14943.2L15064.5 3490.77L15163.8 3373.54L15207.9 3204.21L15252 1927.74ZM16244.5 3568.92H15604.9L15627 3503.79L15671.1 3412.62L15693.1 3334.47L15715.2 3256.31L15737.2 3113.04L15759.3 2904.63L15781.3 2683.2L15803.4 2487.82H16244.5V3568.92Z" fill="black"/>
    <path fill-rule="evenodd" clip-rule="evenodd" d="M17170.9 4181.11L17865.7 1927.74H18450.2L19167 4181.11H18582.5L18472.2 3829.43H17821.6L17711.3 4181.11H17170.9ZM18373 3373.54L18152.4 2592.03L17931.8 3373.54H18373Z" fill="black"/>
    <path d="M15593.9 4597.92V6838.26H15064.5V5535.74L14413.8 6838.26H13851.4V4597.92H14391.8V5900.44L15064.5 4597.92H15593.9Z" fill="black"/>
    <path d="M11756.1 4597.92H12285.4V5457.58H12958.1V4597.92H13509.5V6838.26H12958.1V5991.62H12285.4V6838.26H11756.1V4597.92Z" fill="black"/>
    <path fill-rule="evenodd" clip-rule="evenodd" d="M11612.7 6838.26H11039.2L10928.9 6473.55H10256.2L10157 6838.26H9616.58L10322.4 4597.92H10895.9L11612.7 6838.26ZM10818.7 6030.7L10609.1 5236.15L10377.5 6030.7H10818.7Z" fill="black"/>
    <path d="M8260.12 4610.94V5223.13L8392.46 5210.1L8447.6 5184.05H8888.72L8965.92 5236.15L9010.03 5301.28V5366.41L8965.92 5418.51L8866.67 5457.58H8546.85V5965.57H8987.98L9054.15 6030.7L9076.2 6082.8L9032.09 6200.02L8932.84 6252.12H8392.46L8359.37 6226.07H8260.12V6799.19L8359.37 6838.26L8546.85 6877.34H8965.92L9109.29 6851.29L9186.49 6812.21L9307.79 6760.11L9440.13 6642.88L9539.39 6525.66L9594.53 6395.4L9616.58 6317.25V6043.72L9561.44 5874.39L9495.27 5783.22L9396.02 5718.09L9329.85 5665.99L9418.08 5587.84L9495.27 5483.63L9528.36 5379.43L9561.44 5275.23V5092.88L9517.33 4936.57L9418.08 4780.27L9296.77 4676.07L9142.37 4610.94L8987.98 4571.87L8546.85 4558.84L8469.65 4571.87L8370.4 4584.89L8260.12 4610.94Z" fill="black"/>
    <path fill-rule="evenodd" clip-rule="evenodd" d="M4433.33 4597.92H4973.72V5444.56H5117.08L5613.35 4597.92H6208.87L5569.24 5705.06L6208.87 6799.19L6936.73 4597.92H7510.2L8216 6838.26H7642.54L7532.26 6473.55H6870.56L6760.28 6838.26H5635.41L5117.08 5978.59H4973.72V6838.26H4433.33V4597.92ZM7433 6030.7L7212.44 5236.15L6991.87 6030.7H7433Z" fill="black"/>
</svg>